<?xml version="1.0" encoding="utf-8"?>
<!-- Generator: Adobe Illustrator 21.1.0, SVG Export Plug-In . SVG Version: 6.00 Build 0)  -->
<svg version="1.1" id="Layer_1" xmlns="http://www.w3.org/2000/svg" xmlns:xlink="http://www.w3.org/1999/xlink" x="0px" y="0px"
	 viewBox="0 0 395.8 295" style="enable-background:new 0 0 395.8 295;" xml:space="preserve">
<style type="text/css">
	.st0{clip-path:url(#SVGID_2_);fill:#FFFFFF;}
	.st1{fill:#FFFFFF;}
	.st2{fill:none;stroke:#262626;stroke-width:2;stroke-linecap:square;stroke-linejoin:round;stroke-miterlimit:10;}
	.st3{enable-background:new    ;}
	.st4{fill:#262626;}
	.st5{fill:none;stroke:#0072BD;stroke-width:2;stroke-linejoin:round;stroke-miterlimit:10;}
	.st6{fill:none;stroke:#0072BD;stroke-width:2;stroke-miterlimit:10;}
	.st7{fill:none;stroke:#D95319;stroke-width:2;stroke-linejoin:round;stroke-miterlimit:10;}
	.st8{fill:none;stroke:#D95319;stroke-width:2;stroke-miterlimit:10;}
	.st9{fill:none;stroke:#007F00;stroke-width:2;stroke-linejoin:round;stroke-miterlimit:10;}
	.st10{fill:none;stroke:#007F00;stroke-width:2;stroke-miterlimit:10;}
	.st11{fill:none;stroke:#7E2F8E;stroke-width:2;stroke-linejoin:round;stroke-miterlimit:10;}
	.st12{fill:none;stroke:#7E2F8E;stroke-width:2;stroke-miterlimit:10;}
</style>
<g>
	<g>
		<g>
			<defs>
				<rect id="SVGID_1_" y="0" width="395.8" height="295"/>
			</defs>
			<clipPath id="SVGID_2_">
				<use xlink:href="#SVGID_1_"  style="overflow:visible;"/>
			</clipPath>
			<rect y="0" class="st0" width="395.8" height="295"/>
		</g>
	</g>
	<g>
		<rect y="0" class="st1" width="395.8" height="295"/>
		<path class="st1" d="M51.5,263h306.5V22H51.5V263z"/>
	</g>
	<g>
		<line class="st2" x1="51.5" y1="263" x2="357.9" y2="263"/>
		<line class="st2" x1="51.5" y1="22" x2="357.9" y2="22"/>
		<line class="st2" x1="51.5" y1="263" x2="51.5" y2="259"/>
		<line class="st2" x1="112.8" y1="263" x2="112.8" y2="259"/>
		<line class="st2" x1="174" y1="263" x2="174" y2="259"/>
		<line class="st2" x1="235.3" y1="263" x2="235.3" y2="259"/>
		<line class="st2" x1="296.6" y1="263" x2="296.6" y2="259"/>
		<line class="st2" x1="357.9" y1="263" x2="357.9" y2="259"/>
		<line class="st2" x1="51.5" y1="22" x2="51.5" y2="26"/>
		<line class="st2" x1="112.8" y1="22" x2="112.8" y2="26"/>
		<line class="st2" x1="174" y1="22" x2="174" y2="26"/>
		<line class="st2" x1="235.3" y1="22" x2="235.3" y2="26"/>
		<line class="st2" x1="296.6" y1="22" x2="296.6" y2="26"/>
		<line class="st2" x1="357.9" y1="22" x2="357.9" y2="26"/>
	</g>
	<g transform="translate(68,268.3334)">
		<g class="st3">
			<path class="st4" d="M-19.9,6.6L-19.9,6.6L-21,7.4l-0.2-0.9l1.4-1h0.7V14h-0.8V6.6z"/>
			<path class="st4" d="M-12.5,9.7c0,2.9-0.8,4.5-2.2,4.5c-1.2,0-2.1-1.5-2.1-4.3c0-2.8,0.9-4.4,2.2-4.4C-13.2,5.4-12.5,7-12.5,9.7z
				 M-16,9.8c0,2.2,0.5,3.4,1.3,3.4c0.9,0,1.3-1.4,1.3-3.5c0-2.1-0.4-3.4-1.3-3.4C-15.4,6.3-16,7.5-16,9.8z"/>
		</g>
	</g>
	<g transform="translate(149,268.3334)">
		<g class="st3">
			<path class="st4" d="M-41.5,14v-0.7l0.7-0.9c1.6-2.1,2.4-3.1,2.4-4.4c0-0.9-0.3-1.7-1.3-1.7c-0.6,0-1.1,0.4-1.4,0.7l-0.3-0.8
				c0.4-0.5,1.1-0.9,1.8-0.9c1.4,0,2,1.2,2,2.5c0,1.6-0.9,2.8-2.2,4.5l-0.5,0.6v0h2.9V14H-41.5z"/>
			<path class="st4" d="M-32.2,9.7c0,2.9-0.8,4.5-2.2,4.5c-1.2,0-2.1-1.5-2.1-4.3c0-2.8,0.9-4.4,2.2-4.4C-33,5.4-32.2,7-32.2,9.7z
				 M-35.7,9.8c0,2.2,0.5,3.4,1.3,3.4c0.9,0,1.3-1.4,1.3-3.5c0-2.1-0.4-3.4-1.3-3.4C-35.1,6.3-35.7,7.5-35.7,9.8z"/>
		</g>
	</g>
	<g transform="translate(230,268.3334)">
		<g class="st3">
			<path class="st4" d="M-61,12.7c0.2,0.2,0.8,0.5,1.4,0.5c1.1,0,1.5-0.9,1.4-1.6c0-1.2-0.8-1.7-1.7-1.7h-0.5V9h0.5
				c0.6,0,1.4-0.4,1.4-1.4c0-0.7-0.3-1.3-1.1-1.3c-0.5,0-1,0.3-1.3,0.6L-61,6.1c0.3-0.3,1-0.7,1.7-0.7c1.3,0,1.8,1,1.8,2
				c0,0.9-0.4,1.6-1.2,2v0c0.8,0.2,1.4,1,1.4,2.2c0,1.4-0.8,2.5-2.3,2.5c-0.7,0-1.3-0.3-1.7-0.6L-61,12.7z"/>
			<path class="st4" d="M-51.9,9.7c0,2.9-0.8,4.5-2.2,4.5c-1.2,0-2.1-1.5-2.1-4.3c0-2.8,0.9-4.4,2.2-4.4C-52.7,5.4-51.9,7-51.9,9.7z
				 M-55.4,9.8c0,2.2,0.5,3.4,1.3,3.4c0.9,0,1.3-1.4,1.3-3.5c0-2.1-0.4-3.4-1.3-3.4C-54.8,6.3-55.4,7.5-55.4,9.8z"/>
		</g>
	</g>
	<g transform="translate(311,268.3334)">
		<g class="st3">
			<path class="st4" d="M-78.2,14v-2.3h-3v-0.8l2.9-5.4h0.9v5.3h0.9v0.9h-0.9V14H-78.2z M-78.2,10.8V8c0-0.4,0-0.9,0-1.3h0
				c-0.2,0.5-0.4,0.9-0.5,1.2l-1.6,2.9v0H-78.2z"/>
			<path class="st4" d="M-71.6,9.7c0,2.9-0.8,4.5-2.2,4.5c-1.2,0-2.1-1.5-2.1-4.3c0-2.8,0.9-4.4,2.2-4.4C-72.4,5.4-71.6,7-71.6,9.7z
				 M-75.1,9.8c0,2.2,0.5,3.4,1.3,3.4c0.9,0,1.3-1.4,1.3-3.5c0-2.1-0.4-3.4-1.3-3.4C-74.5,6.3-75.1,7.5-75.1,9.8z"/>
		</g>
	</g>
	<g transform="translate(392,268.3334)">
		<g class="st3">
			<path class="st4" d="M-96.8,6.5h-2.4l-0.2,2.2c0.1,0,0.3-0.1,0.5-0.1c0.5,0,1,0.1,1.4,0.5c0.5,0.4,0.9,1.1,0.9,2.2
				c0,1.7-1,2.9-2.4,2.9c-0.7,0-1.3-0.3-1.6-0.5l0.2-0.9c0.3,0.2,0.8,0.5,1.4,0.5c0.8,0,1.5-0.7,1.5-1.8c0-1.1-0.6-1.9-1.8-1.9
				c-0.4,0-0.6,0.1-0.9,0.1l0.4-4.1h3.1V6.5z"/>
			<path class="st4" d="M-91.3,9.7c0,2.9-0.8,4.5-2.2,4.5c-1.2,0-2.1-1.5-2.1-4.3c0-2.8,0.9-4.4,2.2-4.4C-92.1,5.4-91.3,7-91.3,9.7z
				 M-94.8,9.8c0,2.2,0.5,3.4,1.3,3.4c0.9,0,1.3-1.4,1.3-3.5c0-2.1-0.4-3.4-1.3-3.4C-94.2,6.3-94.8,7.5-94.8,9.8z"/>
		</g>
	</g>
	<g transform="translate(473,268.3334)">
		<g class="st3">
			<path class="st4" d="M-116.6,6.4c-0.2,0-0.4,0-0.6,0.1c-1.4,0.3-2.1,1.6-2.2,3h0c0.3-0.5,0.8-1,1.5-1c1.1,0,1.9,1.1,1.9,2.7
				c0,1.5-0.8,3-2.1,3c-1.4,0-2.3-1.4-2.3-3.6c0-1.7,0.5-3,1.1-3.8c0.5-0.7,1.2-1.1,2-1.2c0.3-0.1,0.5-0.1,0.6-0.1V6.4z
				 M-116.9,11.2c0-1.2-0.5-1.9-1.3-1.9c-0.5,0-1,0.4-1.2,1c-0.1,0.1-0.1,0.3-0.1,0.5c0,1.4,0.5,2.4,1.4,2.4
				C-117.4,13.3-116.9,12.4-116.9,11.2z"/>
			<path class="st4" d="M-111,9.7c0,2.9-0.8,4.5-2.2,4.5c-1.2,0-2.1-1.5-2.1-4.3c0-2.8,0.9-4.4,2.2-4.4C-111.8,5.4-111,7-111,9.7z
				 M-114.5,9.8c0,2.2,0.5,3.4,1.3,3.4c0.9,0,1.3-1.4,1.3-3.5c0-2.1-0.4-3.4-1.3-3.4C-113.9,6.3-114.5,7.5-114.5,9.8z"/>
		</g>
	</g>
	<g>
		<line class="st2" x1="51.5" y1="263" x2="51.5" y2="22"/>
		<line class="st2" x1="357.9" y1="263" x2="357.9" y2="22"/>
		<line class="st2" x1="51.5" y1="263" x2="54.5" y2="263"/>
		<line class="st2" x1="51.5" y1="228.6" x2="54.5" y2="228.6"/>
		<line class="st2" x1="51.5" y1="194.1" x2="54.5" y2="194.1"/>
		<line class="st2" x1="51.5" y1="159.7" x2="54.5" y2="159.7"/>
		<line class="st2" x1="51.5" y1="125.3" x2="54.5" y2="125.3"/>
		<line class="st2" x1="51.5" y1="90.9" x2="54.5" y2="90.9"/>
		<line class="st2" x1="51.5" y1="56.4" x2="54.5" y2="56.4"/>
		<line class="st2" x1="51.5" y1="22" x2="54.5" y2="22"/>
		<line class="st2" x1="357.9" y1="263" x2="354.9" y2="263"/>
		<line class="st2" x1="357.9" y1="228.6" x2="354.9" y2="228.6"/>
		<line class="st2" x1="357.9" y1="194.1" x2="354.9" y2="194.1"/>
		<line class="st2" x1="357.9" y1="159.7" x2="354.9" y2="159.7"/>
		<line class="st2" x1="357.9" y1="125.3" x2="354.9" y2="125.3"/>
		<line class="st2" x1="357.9" y1="90.9" x2="354.9" y2="90.9"/>
		<line class="st2" x1="357.9" y1="56.4" x2="354.9" y2="56.4"/>
		<line class="st2" x1="357.9" y1="22" x2="354.9" y2="22"/>
	</g>
	<g transform="translate(62.6667,263)">
		<g class="st3">
			<path class="st4" d="M-25.9,4.2c0.2,0.2,0.8,0.5,1.4,0.5c1.1,0,1.5-0.9,1.4-1.6c0-1.2-0.8-1.7-1.7-1.7h-0.5V0.5h0.5
				c0.6,0,1.4-0.4,1.4-1.4c0-0.7-0.3-1.3-1.1-1.3c-0.5,0-1,0.3-1.3,0.6l-0.2-0.8c0.3-0.3,1-0.7,1.7-0.7c1.3,0,1.8,1,1.8,2
				c0,0.9-0.4,1.6-1.2,2v0c0.8,0.2,1.4,1,1.4,2.2c0,1.4-0.8,2.5-2.3,2.5c-0.7,0-1.3-0.3-1.7-0.6L-25.9,4.2z"/>
			<path class="st4" d="M-18.4,5.5V3.2h-3V2.4l2.9-5.4h0.9v5.3h0.9v0.9h-0.9v2.3H-18.4z M-18.4,2.3v-2.8c0-0.4,0-0.9,0-1.3h0
				C-18.6-1.4-18.8-1-19-0.6l-1.6,2.9v0H-18.4z"/>
		</g>
	</g>
	<g transform="translate(62.6667,228.5714)">
		<g class="st3">
			<path class="st4" d="M-25.9,4.2c0.2,0.2,0.8,0.5,1.4,0.5c1.1,0,1.5-0.9,1.4-1.6c0-1.2-0.8-1.7-1.7-1.7h-0.5V0.5h0.5
				c0.6,0,1.4-0.4,1.4-1.4c0-0.7-0.3-1.3-1.1-1.3c-0.5,0-1,0.3-1.3,0.6l-0.2-0.8c0.3-0.3,1-0.7,1.7-0.7c1.3,0,1.8,1,1.8,2
				c0,0.9-0.4,1.6-1.2,2v0c0.8,0.2,1.4,1,1.4,2.2c0,1.4-0.8,2.5-2.3,2.5c-0.7,0-1.3-0.3-1.7-0.6L-25.9,4.2z"/>
			<path class="st4" d="M-17.5-2.1c-0.2,0-0.4,0-0.6,0.1c-1.4,0.3-2.1,1.6-2.2,3h0c0.3-0.5,0.8-1,1.5-1c1.1,0,1.9,1.1,1.9,2.7
				c0,1.5-0.8,3-2.1,3c-1.4,0-2.3-1.4-2.3-3.6c0-1.7,0.5-3,1.1-3.8c0.5-0.7,1.2-1.1,2-1.2c0.3-0.1,0.5-0.1,0.6-0.1V-2.1z M-17.7,2.7
				c0-1.2-0.5-1.9-1.3-1.9c-0.5,0-1,0.4-1.2,1c-0.1,0.1-0.1,0.3-0.1,0.5c0,1.4,0.5,2.4,1.4,2.4C-18.2,4.8-17.7,3.9-17.7,2.7z"/>
		</g>
	</g>
	<g transform="translate(62.6667,194.1429)">
		<g class="st3">
			<path class="st4" d="M-25.9,4.2c0.2,0.2,0.8,0.5,1.4,0.5c1.1,0,1.5-0.9,1.4-1.6c0-1.2-0.8-1.7-1.7-1.7h-0.5V0.5h0.5
				c0.6,0,1.4-0.4,1.4-1.4c0-0.7-0.3-1.3-1.1-1.3c-0.5,0-1,0.3-1.3,0.6l-0.2-0.8c0.3-0.3,1-0.7,1.7-0.7c1.3,0,1.8,1,1.8,2
				c0,0.9-0.4,1.6-1.2,2v0c0.8,0.2,1.4,1,1.4,2.2c0,1.4-0.8,2.5-2.3,2.5c-0.7,0-1.3-0.3-1.7-0.6L-25.9,4.2z"/>
			<path class="st4" d="M-21.2,3.4c0-1.1,0.5-1.8,1.3-2.3l0,0c-0.7-0.4-1-1.2-1-1.9c0-1.3,0.9-2.3,2-2.3c1.2,0,1.9,1,1.9,2.1
				c0,0.7-0.3,1.5-1.1,2v0c0.8,0.4,1.3,1.2,1.3,2.2c0,1.5-1,2.5-2.2,2.5C-20.4,5.6-21.2,4.6-21.2,3.4z M-17.7,3.3
				c0-1-0.5-1.5-1.4-1.8c-0.7,0.3-1.2,0.9-1.2,1.7c0,0.9,0.5,1.6,1.3,1.6C-18.2,4.8-17.7,4.2-17.7,3.3z M-20.1-0.9
				c0,0.8,0.5,1.3,1.2,1.6c0.6-0.2,1-0.8,1-1.5c0-0.7-0.3-1.4-1.1-1.4C-19.7-2.3-20.1-1.7-20.1-0.9z"/>
		</g>
	</g>
	<g transform="translate(62.6667,159.7143)">
		<g class="st3">
			<path class="st4" d="M-23.5,5.5V3.2h-3V2.4l2.9-5.4h0.9v5.3h0.9v0.9h-0.9v2.3H-23.5z M-23.5,2.3v-2.8c0-0.4,0-0.9,0-1.3h0
				C-23.7-1.4-23.8-1-24-0.6l-1.6,2.9v0H-23.5z"/>
			<path class="st4" d="M-16.9,1.2c0,2.9-0.8,4.5-2.2,4.5c-1.2,0-2.1-1.5-2.1-4.3c0-2.8,0.9-4.4,2.2-4.4
				C-17.6-3.1-16.9-1.5-16.9,1.2z M-20.3,1.3c0,2.2,0.5,3.4,1.3,3.4c0.9,0,1.3-1.4,1.3-3.5c0-2.1-0.4-3.4-1.3-3.4
				C-19.8-2.2-20.3-1-20.3,1.3z"/>
		</g>
	</g>
	<g transform="translate(62.6667,125.2857)">
		<g class="st3">
			<path class="st4" d="M-23.5,5.5V3.2h-3V2.4l2.9-5.4h0.9v5.3h0.9v0.9h-0.9v2.3H-23.5z M-23.5,2.3v-2.8c0-0.4,0-0.9,0-1.3h0
				C-23.7-1.4-23.8-1-24-0.6l-1.6,2.9v0H-23.5z"/>
			<path class="st4" d="M-21.1,5.5V4.8l0.7-0.9c1.6-2.1,2.4-3.1,2.4-4.4c0-0.9-0.3-1.7-1.3-1.7c-0.6,0-1.1,0.4-1.4,0.7l-0.3-0.8
				c0.4-0.5,1.1-0.9,1.8-0.9c1.4,0,2,1.2,2,2.5c0,1.6-0.9,2.8-2.2,4.5l-0.5,0.6v0h2.9v0.9H-21.1z"/>
		</g>
	</g>
	<g transform="translate(62.6667,90.8571)">
		<g class="st3">
			<path class="st4" d="M-23.5,5.5V3.2h-3V2.4l2.9-5.4h0.9v5.3h0.9v0.9h-0.9v2.3H-23.5z M-23.5,2.3v-2.8c0-0.4,0-0.9,0-1.3h0
				C-23.7-1.4-23.8-1-24-0.6l-1.6,2.9v0H-23.5z"/>
			<path class="st4" d="M-18.4,5.5V3.2h-3V2.4l2.9-5.4h0.9v5.3h0.9v0.9h-0.9v2.3H-18.4z M-18.4,2.3v-2.8c0-0.4,0-0.9,0-1.3h0
				C-18.6-1.4-18.8-1-19-0.6l-1.6,2.9v0H-18.4z"/>
		</g>
	</g>
	<g transform="translate(62.6667,56.4286)">
		<g class="st3">
			<path class="st4" d="M-23.5,5.5V3.2h-3V2.4l2.9-5.4h0.9v5.3h0.9v0.9h-0.9v2.3H-23.5z M-23.5,2.3v-2.8c0-0.4,0-0.9,0-1.3h0
				C-23.7-1.4-23.8-1-24-0.6l-1.6,2.9v0H-23.5z"/>
			<path class="st4" d="M-17.5-2.1c-0.2,0-0.4,0-0.6,0.1c-1.4,0.3-2.1,1.6-2.2,3h0c0.3-0.5,0.8-1,1.5-1c1.1,0,1.9,1.1,1.9,2.7
				c0,1.5-0.8,3-2.1,3c-1.4,0-2.3-1.4-2.3-3.6c0-1.7,0.5-3,1.1-3.8c0.5-0.7,1.2-1.1,2-1.2c0.3-0.1,0.5-0.1,0.6-0.1V-2.1z M-17.7,2.7
				c0-1.2-0.5-1.9-1.3-1.9c-0.5,0-1,0.4-1.2,1c-0.1,0.1-0.1,0.3-0.1,0.5c0,1.4,0.5,2.4,1.4,2.4C-18.2,4.8-17.7,3.9-17.7,2.7z"/>
		</g>
	</g>
	<g transform="translate(62.6667,22)">
		<g class="st3">
			<path class="st4" d="M-23.5,5.5V3.2h-3V2.4l2.9-5.4h0.9v5.3h0.9v0.9h-0.9v2.3H-23.5z M-23.5,2.3v-2.8c0-0.4,0-0.9,0-1.3h0
				C-23.7-1.4-23.8-1-24-0.6l-1.6,2.9v0H-23.5z"/>
			<path class="st4" d="M-21.2,3.4c0-1.1,0.5-1.8,1.3-2.3l0,0c-0.7-0.4-1-1.2-1-1.9c0-1.3,0.9-2.3,2-2.3c1.2,0,1.9,1,1.9,2.1
				c0,0.7-0.3,1.5-1.1,2v0c0.8,0.4,1.3,1.2,1.3,2.2c0,1.5-1,2.5-2.2,2.5C-20.4,5.6-21.2,4.6-21.2,3.4z M-17.7,3.3
				c0-1-0.5-1.5-1.4-1.8c-0.7,0.3-1.2,0.9-1.2,1.7c0,0.9,0.5,1.6,1.3,1.6C-18.2,4.8-17.7,4.2-17.7,3.3z M-20.1-0.9
				c0,0.8,0.5,1.3,1.2,1.6c0.6-0.2,1-0.8,1-1.5c0-0.7-0.3-1.4-1.1-1.4C-19.7-2.3-20.1-1.7-20.1-0.9z"/>
		</g>
	</g>
	<g>
		<path class="st5" d="M51.5,66.1l61.3,45.2l61.3,53.2l61.3,33.3l61.3,63.5l61.3-11.9"/>
		<path class="st6" d="M51.5,73.2l-4.7-10.7h9.3L51.5,73.2z"/>
		<path class="st6" d="M112.8,118.4l-4.7-10.7h9.3L112.8,118.4z"/>
		<path class="st6" d="M174,171.6l-4.7-10.7h9.3L174,171.6z"/>
		<path class="st6" d="M235.3,204.9l-4.7-10.7h9.3L235.3,204.9z"/>
		<path class="st6" d="M296.6,268.4l-4.7-10.7h9.3L296.6,268.4z"/>
		<path class="st6" d="M357.9,256.5l-4.7-10.7h9.3L357.9,256.5z"/>
		<path class="st7" d="M51.5,81.2h61.3L174,151l61.3,35.7l61.3-2.4l61.3,43.6"/>
	</g>
	<g transform="translate(68,81.1793)">
		<path class="st8" d="M-19.4-3.8l5.7,7.5 M-19.4,3.8l5.7-7.5"/>
		<path class="st8" d="M41.9-3.8l5.7,7.5 M41.9,3.8l5.7-7.5"/>
		<path class="st8" d="M103.2,66l5.7,7.5 M103.2,73.6l5.7-7.5"/>
		<path class="st8" d="M164.5,101.7l5.7,7.5 M164.5,109.3l5.7-7.5"/>
		<path class="st8" d="M225.8,99.4l5.7,7.5 M225.8,106.9l5.7-7.5"/>
		<path class="st8" d="M287.1,143l5.7,7.5 M287.1,150.5l5.7-7.5"/>
	</g>
	<g>
		<path class="st9" d="M51.5,39.9l61.3,32.5l61.3,60.3l61.3,5.6l61.3,70.6l61.3,40.5"/>
		<ellipse class="st10" cx="51.1" cy="39.4" rx="4" ry="5.3"/>
		<ellipse class="st10" cx="112.4" cy="72" rx="4" ry="5.3"/>
		<ellipse class="st10" cx="173.7" cy="132.2" rx="4" ry="5.3"/>
		<ellipse class="st10" cx="235" cy="137.8" rx="4" ry="5.3"/>
		<ellipse class="st10" cx="296.3" cy="208.4" rx="4" ry="5.3"/>
		<ellipse class="st10" cx="357.6" cy="248.9" rx="4" ry="5.3"/>
		<path class="st11" d="M51.5,70.9l61.3,4l61.3,64.3l61.3,38.9l61.3,25.4l61.3,0.8"/>
	</g>
	<g transform="translate(68,70.8662)">
		<path class="st12" d="M-11.2,0l-8.1-6.2V6.2L-11.2,0z"/>
		<path class="st12" d="M50.1,4l-8.1-6.2v12.3L50.1,4z"/>
		<path class="st12" d="M111.4,68.2l-8.1-6.2v12.3L111.4,68.2z"/>
		<path class="st12" d="M172.7,107.1l-8.1-6.2v12.3L172.7,107.1z"/>
		<path class="st12" d="M234,132.5l-8.1-6.2v12.3L234,132.5z"/>
		<path class="st12" d="M295.3,133.3l-8.1-6.2v12.3L295.3,133.3z"/>
	</g>
</g>
</svg>
